<svg width="32" height="33" viewBox="0 0 32 33" fill="none" xmlns="http://www.w3.org/2000/svg">
<path d="M7.13008 6.76882H29.7121C30.3649 6.76882 30.8427 7.38411 30.681 8.01655L28.7801 15.4506C28.4405 16.7785 27.2442 17.7074 25.8736 17.7074H9.02537M0 0.499573H4.65214C5.63535 0.499573 6.47274 1.21422 6.62728 2.18521L9.6467 21.1562C9.80125 22.1272 10.6386 22.8418 11.6218 22.8418H28.203" stroke="black"/>
<path d="M16.0189 29.2656C16.0189 30.6971 14.9051 31.8258 13.5695 31.8258C12.234 31.8258 11.1201 30.6971 11.1201 29.2656C11.1201 27.8341 12.234 26.7054 13.5695 26.7054C14.9051 26.7054 16.0189 27.8341 16.0189 29.2656Z" stroke="black"/>
<path d="M28.9965 29.2656C28.9965 30.6971 27.8826 31.8258 26.5471 31.8258C25.2115 31.8258 24.0977 30.6971 24.0977 29.2656C24.0977 27.8341 25.2115 26.7054 26.5471 26.7054C27.8826 26.7054 28.9965 27.8341 28.9965 29.2656Z" stroke="black"/>
</svg>
